PathFileType	4	(X/Y/Z)	C:\Users\Willi\Documents\UniDataLokal\DATA_Hans_PhD\TD05\3DGAIT_C_W31\marker_experimental.trc
DataRate	CameraRate	NumFrames	NumMarkers	Units	OrigDataRate	OrigDataStartFrame	OrigNumFrames
100.000000	100.000000	4	85	mm	100.000000	25	200
Frame#	Time	RBAK			C7			CLAV			T10			STRN			RASI			RPSI			LPSI			LASI			LPELV			RPELV			RTHI1			RTHI2			RTHI3			RTHI			RKNE			RPAT			RLKNEL			RLKNEM			RLPAT			RTIB1			RTIB2			RTIB3			RTIB			RANK			RHEEL			RTOE			RM5			LTHI1			LTHI2			LTHI3			LTHI			LKNE			LPAT			LLKNE			LLKNEM			LLPAT			LTIB1			LTIB2			LTIB3			LTIB			LANK			LHEEL			LTOE			LM5			*45			*46			*47			*48			*49			*50			*51			*52			*53			*54			*55			*56			*57			*58			*59			*60			*61			*62			*63			*64			*65			*66			*67			*68			*69			*70			*71			*72			*73			*74			*75			*76			*77			*78			*79			*80			*81			*82			*83			*84			
		X1	Y1	Z1	X2	Y2	Z2	X3	Y3	Z3	X4	Y4	Z4	X5	Y5	Z5	X6	Y6	Z6	X7	Y7	Z7	X8	Y8	Z8	X9	Y9	Z9	X10	Y10	Z10	X11	Y11	Z11	X12	Y12	Z12	X13	Y13	Z13	X14	Y14	Z14	X15	Y15	Z15	X16	Y16	Z16	X17	Y17	Z17	X18	Y18	Z18	X19	Y19	Z19	X20	Y20	Z20	X21	Y21	Z21	X22	Y22	Z22	X23	Y23	Z23	X24	Y24	Z24	X25	Y25	Z25	X26	Y26	Z26	X27	Y27	Z27	X28	Y28	Z28	X29	Y29	Z29	X30	Y30	Z30	X31	Y31	Z31	X32	Y32	Z32	X33	Y33	Z33	X34	Y34	Z34	X35	Y35	Z35	X36	Y36	Z36	X37	Y37	Z37	X38	Y38	Z38	X39	Y39	Z39	X40	Y40	Z40	X41	Y41	Z41	X42	Y42	Z42	X43	Y43	Z43	X44	Y44	Z44	X45	Y45	Z45	X46	Y46	Z46	X47	Y47	Z47	X48	Y48	Z48	X49	Y49	Z49	X50	Y50	Z50	X51	Y51	Z51	X52	Y52	Z52	X53	Y53	Z53	X54	Y54	Z54	X55	Y55	Z55	X56	Y56	Z56	X57	Y57	Z57	X58	Y58	Z58	X59	Y59	Z59	X60	Y60	Z60	X61	Y61	Z61	X62	Y62	Z62	X63	Y63	Z63	X64	Y64	Z64	X65	Y65	Z65	X66	Y66	Z66	X67	Y67	Z67	X68	Y68	Z68	X69	Y69	Z69	X70	Y70	Z70	X71	Y71	Z71	X72	Y72	Z72	X73	Y73	Z73	X74	Y74	Z74	X75	Y75	Z75	X76	Y76	Z76	X77	Y77	Z77	X78	Y78	Z78	X79	Y79	Z79	X80	Y80	Z80	X81	Y81	Z81	X82	Y82	Z82	X83	Y83	Z83	X84	Y84	Z84	X85	Y85	Z85	

26	0.25	-604.2935180664064	1275.487060546875	-84.52120208740246	-566.5454101562501	1367.647583007812	-239.6790618896486	-464.380615234375	1276.34033203125	-247.3482513427735	-615.6672973632814	1044.367919921875	-241.8797302246095	-404.867919921875	1043.604736328125	-258.1708374023438	-412.3098144531251	885.8121948242188	-135.2129821777345	-603.0272827148438	913.2105102539062	-170.830535888672	-618.4583129882812	904.2645263671875	-283.0032653808595	-443.9068603515625	879.8453979492188	-371.8785705566407	-527.9562377929686	920.7554931640625	-409.3570251464845	-490.1057128906251	942.5877685546875	-82.3994903564454	-420.1734313964844	591.4944458007812	-69.51625061035163	-380.2586669921876	549.0343017578125	-114.7044219970704	-415.0273742675782	492.0682983398438	-93.29068756103523	-456.8701782226563	505.9494934082031	-44.61266708374032	-453.1160278320312	424.2810668945312	-90.66637420654305	-387.2291870117187	428.5282897949219	-155.3699188232423	-455.5528869628906	381.0900573730469	-92.05725097656259	-467.2004394531249	378.9049987792968	-209.4524993896485	-400.6466979980469	370.1989440917969	-140.3252258300782	-379.1016235351562	255.2498016357422	-126.6980056762696	-400.0860595703125	197.9891357421875	-98.00156402587898	-357.3097229003906	166.6869049072265	-141.0498046875001	-425.4872436523438	113.4490737915039	-83.77015686035165	-388.80615234375	60.43043518066404	-135.4165954589845	-405.1921081542968	29.21905136108396	-200.3685302734376	-242.6924133300781	30.77988433837889	-102.7857666015625	-290.747314453125	1.624981760978681	-75.82350158691412	-506.3835144042969	590.3668823242188	-410.2965698242189	-480.8365173339844	537.26123046875	-385.3907470703126	-531.9714965820311	496.9216613769531	-400.4440307617189	-581.2316284179686	511.6955871582031	-432.8976135253907	-584.3868408203124	441.4737548828124	-393.1188964843751	-514.0449829101561	397.4744567871093	-350.2233276367189	-612.1937866210936	400.4128112792968	-390.1421813964845	-595.6817626953125	395.4801940917968	-273.4048156738282	-578.8536376953124	352.8470458984374	-352.8515014648439	-655.8919067382811	285.3575744628906	-354.8769531250001	-721.7167358398436	285.1488952636718	-380.3782958984376	-728.3128662109374	217.9938812255859	-345.5193176269532	-820.0052490234374	262.2225341796874	-374.8078613281252	-849.6361083984374	161.5667114257812	-325.9583129882814	-880.4326782226562	152.2326507568359	-264.2897338867189	-787.9129638671874	31.144359588623	-352.9555664062502	-830.2882080078124	43.62448501586909	-376.1726684570314	nan	nan	nan	nan	nan	nan	nan	nan	nan	nan	nan	nan	nan	nan	nan	nan	nan	nan	nan	nan	nan	nan	nan	nan	nan	nan	nan	nan	nan	nan	nan	nan	nan	nan	nan	nan	nan	nan	nan	nan	nan	nan	nan	nan	nan	nan	nan	nan	nan	nan	nan	nan	nan	nan	nan	nan	nan	nan	nan	nan	nan	nan	nan	nan	nan	nan	nan	nan	nan	nan	nan	nan	nan	nan	nan	nan	nan	nan	nan	nan	nan	nan	nan	nan	nan	nan	nan	nan	nan	nan	nan	nan	nan	nan	nan	nan	nan	nan	nan	nan	nan	nan	nan	nan	nan	nan	nan	nan	nan	nan	nan	nan	nan	nan	nan	nan	nan	nan	nan	nan	
27	0.26	-593.4368286132814	1276.476440429688	-82.63673400878918	-556.4541015625001	1368.599365234375	-238.0119476318361	-454.2553100585938	1277.432983398438	-246.0033111572266	-605.8871459960939	1045.397338867188	-240.3218994140626	-394.9975280761719	1044.645141601562	-257.2017822265626	-402.4010620117188	887.316162109375	-133.2139587402345	-593.1395263671875	914.4801635742188	-169.4627075195314	-608.5247192382812	904.5376586914062	-281.7443847656251	-433.9200439453125	880.436767578125	-369.8381347656251	-517.7128906249999	921.0744018554688	-407.5376281738282	-480.1650085449219	944.0896606445312	-80.8612823486329	-413.0141601562501	592.4317626953125	-67.00495147705085	-373.3747253417969	549.5210571289062	-111.9105072021485	-408.8833312988282	492.9737243652344	-90.92499542236335	-450.5286865234376	507.2171936035156	-42.52859115600594	-447.2908935546875	425.3911743164062	-88.65820312500009	-381.7004089355469	429.2154541015625	-154.0183563232422	-450.0273132324219	382.072998046875	-90.1457061767579	-462.9350280761718	380.3707580566406	-207.5776824951173	-395.7634582519531	370.7286987304688	-139.123519897461	-375.5062561035156	255.34521484375	-126.3789291381837	-396.6252746582031	198.221923828125	-97.51036834716804	-354.7583923339844	166.6105499267578	-141.3912963867188	-422.8468627929688	113.9232330322265	-83.52263641357429	-387.3882141113281	60.77126693725584	-135.7903289794923	-404.7568359374999	29.31433296203611	-200.5963439941407	-241.6824645996093	30.49588394165038	-103.3458557128907	-290.5005187988281	1.863823056220991	-75.89121246337896	-491.2770080566406	590.4974365234375	-410.2546386718751	-464.4296264648438	537.8004760742188	-385.943084716797	-514.6182250976561	496.3658447265624	-401.2419738769532	-564.3078002929686	510.3829956054687	-433.382049560547	-565.9421997070311	440.2896118164062	-394.2723083496095	-494.9372558593749	396.2033386230468	-352.1505737304689	-593.8612670898436	399.9034118652343	-391.357391357422	-575.2894287109375	393.3626403808593	-274.7931518554689	-560.8250122070311	351.6890563964843	-354.5913391113282	-639.9838256835936	286.0441894531249	-355.9837341308595	-705.9995117187499	287.7545776367187	-380.6158752441407	-713.7012329101561	220.7082214355468	-346.0913391113282	-804.7039184570311	267.8052978515624	-373.477996826172	-836.5363769531249	168.3556976318359	-324.5737304687502	-865.3650512695312	161.0615997314453	-261.8987426757814	-785.2516479492186	33.33020782470698	-352.1740112304689	-825.9284667968749	49.80659484863276	-374.7611389160158	nan	nan	nan	nan	nan	nan	nan	nan	nan	nan	nan	nan	nan	nan	nan	nan	nan	nan	nan	nan	nan	nan	nan	nan	nan	nan	nan	nan	nan	nan	nan	nan	nan	nan	nan	nan	nan	nan	nan	nan	nan	nan	nan	nan	nan	nan	nan	nan	nan	nan	nan	nan	nan	nan	nan	nan	nan	nan	nan	nan	nan	nan	nan	nan	nan	nan	nan	nan	nan	nan	nan	nan	nan	nan	nan	nan	nan	nan	nan	nan	nan	nan	nan	nan	nan	nan	nan	nan	nan	nan	nan	nan	nan	nan	nan	nan	nan	nan	nan	nan	nan	nan	nan	nan	nan	nan	nan	nan	nan	nan	nan	nan	nan	nan	nan	nan	nan	nan	nan	nan	
28	0.27	-582.6352539062501	1277.431274414062	-80.79566192626964	-546.4153442382814	1369.513427734375	-236.4251861572267	-444.2082824707031	1278.417114257812	-244.733367919922	-596.2621459960939	1046.401611328125	-238.7361907958986	-385.2955017089844	1045.540161132812	-256.2516479492188	-392.6581115722657	888.5719604492188	-131.2996368408204	-583.4319458007812	915.54736328125	-168.0097045898439	-598.8650512695312	904.66748046875	-280.3258666992189	-424.2583923339844	880.9949340820312	-367.9284667968751	-508.0625610351562	921.2398681640625	-405.6497192382814	-470.4389953613282	945.2025146484375	-79.29518127441415	-406.0911254882813	593.2109375	-64.7924880981446	-366.7560424804688	549.8406982421875	-109.4215164184571	-402.9582519531251	493.7269592285156	-88.85511779785163	-444.3966979980469	508.3030395507812	-40.71438217163094	-441.7521362304688	426.3563842773438	-86.9123077392579	-376.4275817871094	429.6770629882812	-152.7428436279297	-444.8273620605469	382.92724609375	-88.51377868652352	-458.5252990722656	381.787841796875	-205.9701232910157	-391.0555725097656	371.1576538085938	-137.9917602539063	-372.14111328125	255.3845977783203	-126.0799026489259	-393.5670166015625	198.3399810791015	-97.1468811035157	-352.4466247558594	166.4742736816406	-141.6652984619141	-420.7336730957031	114.2662506103515	-83.58258056640632	-386.1443176269531	61.05099487304685	-136.2590637207032	-404.3312377929687	29.37404632568357	-200.8995056152345	-240.8533630371093	30.21922302246092	-103.8728485107422	-290.2450866699219	2.019289255142194	-75.99011993408209	-476.1050720214844	590.686767578125	-410.3587646484376	-447.8357849121094	538.4869384765625	-386.6801452636719	-496.9950866699219	495.8770751953124	-402.1483764648439	-547.1798095703124	508.9925231933593	-433.915008544922	-547.0518188476561	439.1154785156249	-395.4530639648439	-475.3526611328124	395.1474609374999	-354.1260986328126	-574.9422607421874	399.4142761230468	-392.551971435547	-554.0953979492188	391.2410583496093	-276.1271362304689	-542.1223754882811	350.6264343261718	-356.3059997558595	-623.1855468749999	286.7838745117187	-356.9965820312501	-689.4465332031249	290.3278503417968	-380.6840820312501	-698.2326660156249	223.4070129394531	-346.4360961914064	-788.4584350585936	273.3530273437499	-371.8518676757814	-822.3150024414061	175.1061096191406	-322.7998046875002	-849.0027465820312	169.6349639892578	-259.0882873535158	-781.5241699218749	36.33809280395503	-351.3611450195314	-820.3874511718749	56.72410583496089	-373.0797119140627	nan	nan	nan	nan	nan	nan	nan	nan	nan	nan	nan	nan	nan	nan	nan	nan	nan	nan	nan	nan	nan	nan	nan	nan	nan	nan	nan	nan	nan	nan	nan	nan	nan	nan	nan	nan	nan	nan	nan	nan	nan	nan	nan	nan	nan	nan	nan	nan	nan	nan	nan	nan	nan	nan	nan	nan	nan	nan	nan	nan	nan	nan	nan	nan	nan	nan	nan	nan	nan	nan	nan	nan	nan	nan	nan	nan	nan	nan	nan	nan	nan	nan	nan	nan	nan	nan	nan	nan	nan	nan	nan	nan	nan	nan	nan	nan	nan	nan	nan	nan	nan	nan	nan	nan	nan	nan	nan	nan	nan	nan	nan	nan	nan	nan	nan	nan	nan	nan	nan	nan	
29	0.28	-571.8980102539064	1278.346557617188	-78.99967956542979	-536.4370117187501	1370.383911132812	-234.924774169922	-434.2487182617188	1279.281494140625	-243.5470428466798	-586.7971191406251	1047.373901367188	-237.1280364990236	-375.7646179199219	1046.288330078125	-255.3262176513672	-383.0753784179688	889.5961303710938	-129.5084075927735	-573.9026489257812	916.4114379882812	-166.4821319580079	-589.474365234375	904.6580200195312	-278.7567138671876	-414.925537109375	881.5255737304688	-366.1787414550782	-499.0151062011719	921.237548828125	-403.7261352539064	-460.9156188964844	945.9647216796875	-77.72585296630868	-399.3738403320313	593.8574829101562	-62.91968917846687	-360.4048156738282	550.0062866210938	-107.3044433593751	-397.2375488281251	494.3490295410156	-87.10473632812507	-438.4431152343751	509.2457580566406	-39.16146850585945	-436.5074157714844	427.1947937011719	-85.41136932373055	-371.5103454589844	429.903564453125	-151.5439453125001	-439.9628295898438	383.6712341308594	-87.1383590698243	-454.0927734374999	383.1348266601562	-204.5991210937501	-386.547607421875	371.4915161132812	-136.9371032714844	-369.0149230957031	255.3811645507812	-125.7949142456055	-390.90966796875	198.3743896484375	-96.86833190917976	-350.3982543945312	166.2912445068359	-141.8529510498047	-419.1180419921875	114.5186157226562	-83.82274627685554	-385.1159362792969	61.2736015319824	-136.7592163085938	-403.9616394042968	29.40843009948728	-201.2206420898438	-240.2250213623047	29.96398735046385	-104.3340072631836	-290.0075073242188	2.089493274688703	-76.09437561035162	-460.9433288574219	590.979736328125	-410.5972900390626	-431.1561584472656	539.3677368164062	-387.5761108398438	-479.213623046875	495.5252990722656	-403.1351928710939	-529.9731445312499	507.6116943359374	-434.4461975097657	-527.8407592773436	438.0381774902343	-396.621551513672	-455.4005432128906	394.3993835449219	-356.0881347656251	-555.5493164062499	399.0061340332031	-393.6934509277345	-532.3057250976562	389.2655334472656	-277.3643798828126	-522.8482055664061	349.7337036132812	-357.9477844238282	-605.5692749023436	287.6029663085937	-357.8865966796876	-672.1356201171874	292.8656005859374	-380.5744934082032	-682.0139770507811	226.0670776367187	-346.5403747558595	-771.3598632812499	278.8096618652343	-369.982635498047	-807.0364379882811	181.7140502929687	-320.6989135742189	-831.5527954101562	177.7698974609374	-255.9866638183595	-776.2919921874999	40.17550277709956	-350.6252441406252	-813.3621215820311	64.19289398193354	-371.2185668945314	nan	nan	nan	nan	nan	nan	nan	nan	nan	nan	nan	nan	nan	nan	nan	nan	nan	nan	nan	nan	nan	nan	nan	nan	nan	nan	nan	nan	nan	nan	nan	nan	nan	nan	nan	nan	nan	nan	nan	nan	nan	nan	nan	nan	nan	nan	nan	nan	nan	nan	nan	nan	nan	nan	nan	nan	nan	nan	nan	nan	nan	nan	nan	nan	nan	nan	nan	nan	nan	nan	nan	nan	nan	nan	nan	nan	nan	nan	nan	nan	nan	nan	nan	nan	nan	nan	nan	nan	nan	nan	nan	nan	nan	nan	nan	nan	nan	nan	nan	nan	nan	nan	nan	nan	nan	nan	nan	nan	nan	nan	nan	nan	nan	nan	nan	nan	nan	nan	nan	nan	
